<svg xmlns="http://www.w3.org/2000/svg" width="266.526" height="474" viewBox="0 0 266.526 474">
  <g id="Component_1_1" data-name="Component 1 – 1" transform="translate(0.526)">
    <g id="Group_2" data-name="Group 2" transform="translate(48 235)">
      <g id="Bottom_Standing_Skinny_Jeans" data-name="Bottom/Standing/Skinny Jeans">
        <path id="Leg" d="M100.994,0,56.341,127.227,23.762,221H0L34.62,0Z" transform="translate(48.034 0)" fill="#63a3ab"/>
        <path id="Leg-2" data-name="Leg" d="M78.45,0C79.483,65.574,83,101.34,84.089,107.3S101.571,151.156,133.28,221H108.664Q48.111,120.5,41.06,107.3C36.359,98.5,21.851,62.734,0,0Z" transform="translate(82.52)" fill="#7dc5ce"/>
        <g id="Left_Shoe" data-name="Left Shoe" transform="translate(142.87 218)">
          <path id="Shoe" d="M75.13,21,73.9,0H48.034C29.638,10.5,0,17,0,17v4H46.8l16.011-2v2Z"/>
        </g>
        <g id="Right_Shoe" data-name="Right Shoe" transform="translate(0 218)">
          <path id="Shoe-2" data-name="Shoe" d="M75.13,21,73.9,0H48.034C29.638,10.5,0,17,0,17v4H46.8l16.011-2v2Z"/>
        </g>
      </g>
    </g>
    <g id="Group_3" data-name="Group 3" transform="matrix(1, 0.017, -0.017, 1, 118.686, 0)">
      <g id="Head" transform="translate(1.662 2.628)">
        <path id="Head-2" data-name="Head" d="M0,0,11.1,51.1C4.908,58.276.719,67.072,1.419,76.927c2.017,28.4,42.025,22.149,49.807,7.817s6.858-50.686-3.2-53.248c-4.011-1.022-12.556,1.481-21.253,6.66L32.232,0Z" transform="translate(56.406 96.864) rotate(180)" fill="#57331f"/>
      </g>
      <path id="Hair" d="M27.136,9.487c-2.165,6.461-2.99,25.061-3.19,30.557a8.241,8.241,0,0,1-.967.057,8.01,8.01,0,0,1-8.057-7.962,7.891,7.891,0,0,1,2.427-5.7c-1.865-2.6-3.954-5.317-6.348-8.12-9,5.332-15.671,20.942-6.876,35.937,2.431,7.346,7.934,11.27,14.433,13.091A23.643,23.643,0,0,0,33.9,68.469c9.043-.767,17.119-3.492,19.408-5.11,0-8.459-1.66-10.969-15.829-10.748-3.482-1.817-6.159-4.945-8.947-9.046.02-.274,1.893-25.472,9.791-25.472,7.94,0,14.677,4.981,18.162,4.981,2.539,0,1.973-3.141.289-5.468-1.389-1.922-8.153-3.773-8.153-6.751,0-1.681,1.7-1.679,3.187-1.675,1.143,0,2.156,0,2.156-.765,0-2.921.94-8.414-4.193-8.414C44.58,0,29.688,1.87,27.136,9.487Z" transform="translate(58.217 69.266) rotate(180)"/>
    </g>
    <path id="Skin" d="M65.955,18.276l18.5,10.005s3.893,14.585,9.308,14.676c1.4.641.864-2.161.664-4.961-.2-2.759-.072-5.517,2.537-4.989,5.257,1.065,18.087,10.46,20.3,8.553,3.27-2.823.355-11.488-3.081-15.8-6.423-8.056-11.739-10.812-24.882-14.419C78.989,8.513,67.009,0,67.009,0ZM0,37.435,42.111,60.143q10.505,12.281,20.7,19.075c2.077.854,5.709,1.371,2.313-4.565s-6.7-12.329-4.968-14.157c.76-.8,2.019-.76,3.368-.717,1.72.054,3.585.109,4.742-1.6q2.065-3.038-22.115-9.6L15.551,21Z" transform="translate(118.686 170.44) rotate(180)" fill="#57331f" stroke="#57331f" stroke-width="1"/>
    <path id="Sleeve" d="M6.606,29.092A104.677,104.677,0,0,1,63.887,36.56L69.2,17.4C52.685,5.691,30.762-2.6,13.26.668-.533,3.245-5,20.864,6.606,29.092Z" transform="translate(141.168 157.714) rotate(-171)" fill="#2026a2"/>
    <path id="Clothes" d="M46.645,173H43.392c-3.514,0-27.4-47.352-27.418-78.115C15.953,66.794-9.318,48.951,3.752,5.048,11.375,6.6,24.5,4.7,38.6,2.81,63.1-.484,90.568-3.778,97.3,11.021c5.159,11.346,6.693,23.759,6.015,36.808,23.279-.627,52.149,6.427,86.275,23.978,1.035,11.9-12.679,39.829-12.679,39.829S118.267,91.092,95.4,98.824a14.048,14.048,0,0,0-2.555,1.164c-6.8,23.571-14.757,47.351-17.065,69.217.051,2.4.122,3.8.122,3.8Z" transform="translate(217.462 255) rotate(180)" fill="#1f28cf"/>
  </g>
</svg>
